<svg width="250" height="30" viewBox="0 0 2097 153" fill="none" xmlns="http://www.w3.org/2000/svg">
<path d="M832.014 0L845.71 42.15H890.029L854.174 68.2001L867.869 110.35L832.014 84.2999L796.16 110.35L809.855 68.2001L774 42.15H818.319L832.014 0Z" transform="translate(0 4)" fill="black"/>
<path d="M1264.01 0L1277.71 42.15H1322.03L1286.17 68.2001L1299.87 110.35L1264.01 84.2999L1228.16 110.35L1241.85 68.2001L1206 42.15H1250.32L1264.01 0Z" transform="translate(0 4)" fill="black"/>
<path d="M1048.01 36L1061.71 78.15H1106.03L1070.17 104.2L1083.87 146.35L1048.01 120.3L1012.16 146.35L1025.85 104.2L990 78.15H1034.32L1048.01 36Z" transform="translate(0 4)" fill="black"/>
<path d="M1488 72H2097Z" transform="translate(0 4)" fill="black"/>
<path d="M0 72H609Z" transform="translate(0 4)" fill="black"/>
<path d="M832.014 0L832.966 -0.309016L832.014 -3.23607L831.063 -0.309017L832.014 0ZM845.71 42.15L844.759 42.459L844.983 43.15H845.71V42.15ZM890.029 42.15L890.617 42.959L893.107 41.15H890.029V42.15ZM854.174 68.2001L853.586 67.3911L852.998 67.8181L853.223 68.5091L854.174 68.2001ZM867.869 110.35L867.282 111.159L869.771 112.968L868.82 110.041L867.869 110.35ZM832.014 84.2999L832.602 83.4909L832.014 83.0639L831.427 83.4909L832.014 84.2999ZM796.16 110.35L795.208 110.041L794.257 112.968L796.747 111.159L796.16 110.35ZM809.855 68.2001L810.806 68.5091L811.03 67.8181L810.443 67.3911L809.855 68.2001ZM774 42.15V41.15H770.922L773.412 42.959L774 42.15ZM818.319 42.15V43.15H819.046L819.27 42.459L818.319 42.15ZM1264.01 0L1264.97 -0.309019L1264.01 -3.23606L1263.06 -0.309016L1264.01 0ZM1277.71 42.15L1276.76 42.459L1276.98 43.15H1277.71V42.15ZM1322.03 42.15L1322.62 42.959L1325.11 41.15H1322.03V42.15ZM1286.17 68.2001L1285.59 67.3911L1285 67.8181L1285.22 68.5091L1286.17 68.2001ZM1299.87 110.35L1299.28 111.159L1301.77 112.968L1300.82 110.041L1299.87 110.35ZM1264.01 84.2999L1264.6 83.4909L1264.01 83.0639L1263.43 83.4909L1264.01 84.2999ZM1228.16 110.35L1227.21 110.041L1226.26 112.968L1228.75 111.159L1228.16 110.35ZM1241.85 68.2001L1242.81 68.5091L1243.03 67.8181L1242.44 67.3911L1241.85 68.2001ZM1206 42.15V41.15H1202.92L1205.41 42.959L1206 42.15ZM1250.32 42.15V43.15H1251.05L1251.27 42.459L1250.32 42.15ZM1048.01 36L1048.97 35.691L1048.01 32.7639L1047.06 35.691L1048.01 36ZM1061.71 78.15L1060.76 78.459L1060.98 79.15H1061.71V78.15ZM1106.03 78.15L1106.62 78.959L1109.11 77.15H1106.03V78.15ZM1070.17 104.2L1069.59 103.391L1069 103.818L1069.22 104.509L1070.17 104.2ZM1083.87 146.35L1083.28 147.159L1085.77 148.968L1084.82 146.041L1083.87 146.35ZM1048.01 120.3L1048.6 119.491L1048.01 119.064L1047.43 119.491L1048.01 120.3ZM1012.16 146.35L1011.21 146.041L1010.26 148.968L1012.75 147.159L1012.16 146.35ZM1025.85 104.2L1026.81 104.509L1027.03 103.818L1026.44 103.391L1025.85 104.2ZM990 78.15V77.15H986.922L989.412 78.959L990 78.15ZM1034.32 78.15V79.15H1035.05L1035.27 78.459L1034.32 78.15ZM831.063 0.309016L844.759 42.459L846.661 41.8409L832.966 -0.309016L831.063 0.309016ZM845.71 43.15H890.029V41.15H845.71V43.15ZM889.441 41.3409L853.586 67.3911L854.762 69.0091L890.617 42.959L889.441 41.3409ZM853.223 68.5091L866.918 110.659L868.82 110.041L855.125 67.8911L853.223 68.5091ZM868.457 109.541L832.602 83.4909L831.427 85.1089L867.282 111.159L868.457 109.541ZM831.427 83.4909L795.572 109.541L796.747 111.159L832.602 85.1089L831.427 83.4909ZM797.111 110.659L810.806 68.5091L808.904 67.8911L795.208 110.041L797.111 110.659ZM810.443 67.3911L774.588 41.3409L773.412 42.959L809.267 69.0091L810.443 67.3911ZM774 43.15H818.319V41.15H774V43.15ZM819.27 42.459L832.966 0.309017L831.063 -0.309017L817.368 41.8409L819.27 42.459ZM1263.06 0.309019L1276.76 42.459L1278.66 41.8409L1264.97 -0.309019L1263.06 0.309019ZM1277.71 43.15H1322.03V41.15H1277.71V43.15ZM1321.44 41.3409L1285.59 67.3911L1286.76 69.0091L1322.62 42.959L1321.44 41.3409ZM1285.22 68.5091L1298.92 110.659L1300.82 110.041L1287.13 67.8911L1285.22 68.5091ZM1300.46 109.541L1264.6 83.4909L1263.43 85.1089L1299.28 111.159L1300.46 109.541ZM1263.43 83.4909L1227.57 109.541L1228.75 111.159L1264.6 85.1089L1263.43 83.4909ZM1229.11 110.659L1242.81 68.5091L1240.9 67.8911L1227.21 110.041L1229.11 110.659ZM1242.44 67.3911L1206.59 41.3409L1205.41 42.959L1241.27 69.0091L1242.44 67.3911ZM1206 43.15H1250.32V41.15H1206V43.15ZM1251.27 42.459L1264.97 0.309016L1263.06 -0.309016L1249.37 41.8409L1251.27 42.459ZM1047.06 36.309L1060.76 78.459L1062.66 77.8409L1048.97 35.691L1047.06 36.309ZM1061.71 79.15H1106.03V77.15H1061.71V79.15ZM1105.44 77.3409L1069.59 103.391L1070.76 105.009L1106.62 78.959L1105.44 77.3409ZM1069.22 104.509L1082.92 146.659L1084.82 146.041L1071.13 103.891L1069.22 104.509ZM1084.46 145.541L1048.6 119.491L1047.43 121.109L1083.28 147.159L1084.46 145.541ZM1047.43 119.491L1011.57 145.541L1012.75 147.159L1048.6 121.109L1047.43 119.491ZM1013.11 146.659L1026.81 104.509L1024.9 103.891L1011.21 146.041L1013.11 146.659ZM1026.44 103.391L990.588 77.3409L989.412 78.959L1025.27 105.009L1026.44 103.391ZM990 79.15H1034.32V77.15H990V79.15ZM1035.27 78.459L1048.97 36.309L1047.06 35.691L1033.37 77.8409L1035.27 78.459ZM1488 73H2097V71H1488V73ZM0 73H609V71H0V73Z" transform="translate(0 4)" fill="black"/>
</svg>
