<svg width="550" height="147" viewBox="0 0 550 147" fill="none" xmlns="http://www.w3.org/2000/svg">
<path d="M58.0144 0L71.7098 42.15H116.029L80.174 68.2001L93.8693 110.35L58.0144 84.2999L22.1595 110.35L35.8549 68.2001L0 42.15H44.3191L58.0144 0Z" transform="translate(0.985565)" fill="white"/>
<path d="M490.014 0L503.71 42.15H548.029L512.174 68.2001L525.869 110.35L490.014 84.2999L454.16 110.35L467.855 68.2001L432 42.15H476.319L490.014 0Z" transform="translate(0.985565)" fill="white"/>
<path d="M274.014 36L287.71 78.15H332.029L296.174 104.2L309.869 146.35L274.014 120.3L238.16 146.35L251.855 104.2L216 78.15H260.319L274.014 36Z" transform="translate(0.985565)" fill="white"/>
</svg>
